<svg width="1081" height="1081" viewBox="0 0 1081 1081" fill="none" xmlns="http://www.w3.org/2000/svg">
<path d="M1080.88 0.625H0.875V1080.62H1080.88V0.625Z" fill="#E5FE58"/>
<path d="M361.422 250.036H434.727V340.724C460.422 290.09 515.536 242.479 594.888 242.479C737.72 242.478 811.08 346.013 811.08 480.534C811.08 615.054 736.209 718.589 593.375 718.589C515.534 718.589 460.42 671.734 435.48 622.612L435.48 861.424H362.175L362.175 250.036H361.422ZM734.754 480.534C734.754 376.242 674.296 308.227 581.34 308.227C462.691 308.227 427.927 376.243 427.927 480.534C427.927 584.825 462.691 652.841 581.341 652.841C674.296 652.841 734.754 585.58 734.754 480.534Z" fill="black"/>
</svg>
