<svg width="305" height="91" viewBox="0 0 305 91" fill="none" xmlns="http://www.w3.org/2000/svg">
<g clip-path="url(#clip0_4_9)">
<g clip-path="url(#clip1_4_9)">
<path d="M6 30.7387H11.6747V37.757C13.6638 33.8384 17.4664 30.1538 23.6091 30.1538C34.666 30.1538 40.8087 38.1664 40.8087 48.5768C40.8087 58.9874 34.549 66.9999 23.4921 66.9999C17.4664 66.9999 13.6638 63.3738 11.7332 59.5721V80.9195H6.0585V30.7387H6ZM34.9 48.5768C34.9 40.5058 30.2199 35.2421 23.0241 35.2421C13.8393 35.2421 11.1482 40.5058 11.1482 48.5768C11.1482 56.6478 13.8393 61.9117 23.0241 61.9117C30.2199 61.9117 34.9 56.7062 34.9 48.5768Z" fill="white"/>
<path d="M115.574 43.4301V66.4733H109.9V59.2211C108.262 63.549 103.23 66.9998 97.6725 66.9998C90.1258 66.9998 85.2703 62.7304 85.2703 56.2385C85.2703 49.7465 90.8867 45.1262 99.5449 45.1262H107.618C109.198 45.1262 109.9 44.3659 109.9 43.1962C109.9 38.2834 106.448 34.9496 100.305 34.9496C95.0401 34.9496 90.9451 38.2249 90.6525 42.1434H85.2703C85.9139 35.242 92.4661 30.1538 100.481 30.1538C109.724 30.1538 115.574 35.476 115.574 43.4301ZM109.9 50.3899V49.4541H99.8959C94.5722 49.4541 91.1204 52.0275 91.1204 56.1801C91.1204 59.8645 94.0455 62.2042 98.5503 62.2042C106.682 62.2042 109.9 57.759 109.9 50.3899Z" fill="white"/>
<path d="M133.71 48.5765L129.03 52.846V66.4733H123.297V16H129.03V46.9389L145.469 30.6799H153.367L137.571 45.0674L154.771 66.4148H147.575L133.71 48.5765Z" fill="white"/>
<path d="M79.303 55.0101C78.0746 62.321 71.7562 67.0583 62.9222 67.0583C52.3336 67.0583 45.8983 58.6365 45.8983 48.4014C45.8983 38.1664 52.4504 30.1538 62.9222 30.1538C73.3944 30.1538 79.5955 37.9909 79.5955 47.5241C79.5955 48.2844 79.5371 49.5126 79.4787 49.9805H51.5146C51.9241 57.3497 56.1948 62.1454 62.9222 62.1454C68.7143 62.1454 72.4582 59.4552 73.5697 54.9516H79.303V55.0101ZM51.7484 45.4186H73.7454C73.3356 39.3946 69.5332 35.2421 62.8638 35.2421C56.1948 35.2421 52.8015 39.1022 51.7484 45.4186Z" fill="white"/>
</g>
<path d="M167.651 66.0678C167.46 66.1225 167.273 66.0005 167.092 65.7017C166.908 65.3639 166.706 65.0472 166.486 64.7515L167.129 64.6994C166.786 63.8649 166.645 63.0926 166.705 62.3823C166.801 61.6299 166.919 60.9148 167.06 60.2371C167.198 59.5205 167.3 58.846 167.366 58.2135C167.468 57.539 167.354 56.8624 167.025 56.1837C167.229 56.2847 167.362 56.2347 167.424 56.0337C167.522 55.7906 167.578 55.5117 167.591 55.1971C167.641 54.8404 167.632 54.4884 167.564 54.1411C167.533 53.7518 167.488 53.4419 167.43 53.2115C167.838 51.9634 168.126 50.6859 168.294 49.3789C168.502 48.0688 168.671 46.7813 168.804 45.5164C168.933 44.2126 169.086 42.9656 169.264 41.7754C169.478 40.5432 169.775 39.3825 170.157 38.2933C170.696 38.1712 171.267 38.2032 171.87 38.3893C172.508 38.5334 172.938 38.7533 173.158 39.0489C174.289 38.0165 175.268 36.8004 176.095 35.4008C176.922 34.0011 177.752 32.6404 178.585 31.3186C179.454 29.9547 180.452 28.7371 181.58 27.6657C182.708 26.5943 184.16 25.8885 185.935 25.5484C186.923 26.1344 188.033 26.7693 189.264 27.4531C190.492 28.098 191.522 28.9549 192.353 30.024C192.681 30.1933 192.99 30.3838 193.282 30.5952C193.609 30.7646 193.936 30.934 194.264 31.1033L194.335 31.9794C194.921 32.4412 195.418 33.0084 195.825 33.6807C196.268 34.311 196.657 35.0044 196.993 35.7609C197.365 36.4754 197.719 37.2109 198.054 37.9674C198.39 38.724 198.76 39.419 199.164 40.0524C199.105 40.2923 199.084 40.5096 199.1 40.7043C199.151 40.8569 199.204 41.0289 199.259 41.2204C199.35 41.3698 199.424 41.5598 199.482 41.7902C199.536 41.9817 199.576 42.2332 199.602 42.5447C199.614 44.6208 199.068 46.3504 197.966 47.7332C196.899 49.074 195.542 50.2228 193.895 51.1795C192.284 52.0942 190.549 52.921 188.688 53.66C186.825 54.36 185.141 55.1042 183.638 55.8926C183.65 56.0483 183.735 56.1198 183.89 56.1072C184.085 56.0914 184.153 56.2034 184.094 56.4434C185.319 57.0493 186.26 57.5411 186.918 57.9188C187.615 58.2933 188.248 58.6142 188.819 58.8814C189.425 59.1065 190.067 59.2895 190.744 59.4304C191.461 59.5682 192.434 59.7243 193.663 59.8988C194.892 60.0733 195.845 60.231 196.523 60.372C197.237 60.4708 197.871 60.5564 198.425 60.629C198.977 60.6626 199.567 60.693 200.196 60.7203C200.825 60.7476 201.67 60.7769 202.731 60.8083C203.194 61.2018 203.586 61.6795 203.906 62.2414C204.226 62.8033 204.468 63.3715 204.632 63.946C204.796 64.5205 204.862 65.0835 204.828 65.6349C204.83 66.1442 204.708 66.5657 204.46 66.8993C204.512 67.0518 204.616 67.1218 204.771 67.1092C204.963 67.0544 205.158 67.0386 205.355 67.0617C205.099 67.2785 204.884 67.5311 204.712 67.8195C204.539 68.1078 204.366 68.3962 204.194 68.6845C204.021 68.9729 203.808 69.2449 203.555 69.5006C203.34 69.7532 203.04 69.9148 202.654 69.9854C201.296 70.6443 199.507 70.8092 197.285 70.4801C195.064 70.1511 192.207 69.4817 188.716 68.472C186.991 67.985 185.582 67.5311 184.49 67.1104C183.398 66.6896 182.443 66.2772 181.627 65.8733C180.807 65.4304 180.044 64.9633 179.338 64.4719C178.628 63.9417 177.814 63.322 176.894 62.6129C176.78 62.6613 176.709 62.7455 176.679 62.8655C176.689 62.9823 176.637 63.0649 176.523 63.1133C176.455 64.6865 176.246 65.9771 175.897 66.9853C175.587 67.9903 175.083 69.0305 174.387 70.1061C173.755 70.0399 173.331 70.133 173.116 70.3856C172.941 70.635 172.705 70.8697 172.409 71.0897C172.026 71.1992 171.733 71.2034 171.529 71.1025C171.328 71.0404 171.144 70.9573 170.979 70.8531C170.814 70.749 170.629 70.6464 170.425 70.5454C170.221 70.4444 169.906 70.4308 169.481 70.5045C169.336 70.1636 169.192 69.8421 169.05 69.5401C168.905 69.1992 168.581 69.0688 168.078 69.1488C168.166 68.7889 168.181 68.4938 168.123 68.2633C168.062 67.9939 167.985 67.7651 167.891 67.5767C167.794 67.3495 167.698 67.1222 167.601 66.8949C167.543 66.6644 167.56 66.3887 167.651 66.0678ZM184.99 37.794C184.543 38.5749 184.034 39.3021 183.462 39.9756C182.886 40.6103 182.314 41.2838 181.745 41.9963C181.211 42.6667 180.743 43.4102 180.339 44.2268C179.932 45.0045 179.673 45.9269 179.564 46.9939C181.184 46.6664 182.86 46.0795 184.594 45.2333C186.325 44.348 187.962 43.5097 189.505 42.7181C189.193 41.2934 188.593 40.1859 187.706 39.3958C186.816 38.5667 185.91 38.0328 184.99 37.794ZM203.117 62.6582L203.828 62.0125L203.787 60.7813C204.568 58.3273 205.375 55.969 206.211 53.7065C207.085 51.4408 207.993 49.1135 208.936 46.7247C209.226 45.9565 209.516 45.1882 209.807 44.42C210.136 43.6487 210.444 42.8594 210.731 42.0523C210.68 41.8997 210.648 41.7455 210.635 41.5898C210.619 41.3951 210.641 41.1778 210.7 40.9379C211.181 40.1149 211.553 39.3793 211.814 38.7311C212.113 38.0797 212.392 37.4104 212.65 36.7232C212.937 35.916 213.244 35.1073 213.57 34.297C213.935 33.4835 214.399 32.6816 214.962 31.8913L215.323 31.2741L215.97 31.2803C216.12 31.1898 216.271 31.1187 216.423 31.0671C216.612 30.9735 216.842 30.9155 217.114 30.8934L218.18 30.9832C219.417 30.2949 220.478 29.3661 221.363 28.1969C222.284 26.9855 223.187 25.5601 224.073 23.9205L224.693 22.8708L225.675 23.3789C225.879 23.4799 226.2 23.5714 226.638 23.6534C227.076 23.7354 227.534 23.8353 228.014 23.9531C228.848 24.0814 229.665 24.2501 230.466 24.4594C231.263 24.6298 231.894 24.9117 232.357 25.3052L232.691 25.8071C232.804 26.2291 232.894 26.6137 232.961 26.9609C233.068 27.305 233.174 27.6491 233.28 27.9932C233.503 28.7981 233.705 29.6047 233.888 30.4128C234.069 31.182 234.218 32.0517 234.336 33.0219C234.593 33.7848 234.833 34.5687 235.056 35.3737C235.314 36.1366 235.552 36.901 235.771 37.6671C236.057 38.7803 236.36 39.8531 236.679 40.8854C236.995 41.8787 237.385 42.8267 237.851 43.7295C238.24 43.6979 238.475 43.6984 238.556 43.731C239.008 43.4984 239.543 43.3373 240.163 43.2478L240.917 43.1277L241.208 43.8096C241.295 43.92 241.402 44.0289 241.528 44.1363C241.655 44.2436 241.8 44.3493 241.966 44.4535C242.592 44.4418 243.051 44.5417 243.342 44.7532C243.669 44.9226 243.938 45.0967 244.149 45.2755C244.233 45.3471 244.338 45.4365 244.464 45.5438C244.588 45.6122 244.69 45.6627 244.771 45.6953L245.855 46.0187L245.361 47.1758C244.999 48.0282 244.402 48.8801 243.57 49.7315C242.777 50.5798 241.856 51.3013 240.807 51.8959C240.907 52.1622 240.966 52.4121 240.985 52.6457C241.043 52.8761 241.123 53.1439 241.227 53.4491C241.446 54.2151 241.629 55.0232 241.776 55.8735C241.959 56.6816 242.029 57.5382 241.985 58.4431C241.678 59.487 241.285 60.44 240.806 61.3018C240.363 62.1216 239.799 62.8925 239.113 63.6145C238.463 64.2944 237.707 64.8848 236.847 65.3858C235.983 65.8479 235.066 66.1379 234.095 66.2559C233.541 66.1834 233.121 66.0803 232.836 65.9467C232.59 65.8099 232.363 65.6716 232.155 65.5317C231.825 65.3234 231.559 65.1882 231.358 65.1261L230.571 64.8374L230.733 63.9424C230.825 63.6214 230.783 63.3505 230.608 63.1295C230.472 62.9054 230.175 62.616 229.715 62.2615C229.55 62.1573 229.404 62.0516 229.277 61.9443C229.148 61.798 228.999 61.6534 228.831 61.5103L227.554 60.2619L229.438 59.5798C230.581 59.1734 231.328 58.7208 231.679 58.222C232.028 57.6842 232.112 56.7956 231.933 55.556C230.944 55.4404 230.144 55.4857 229.534 55.6921C228.92 55.8595 228.309 56.0463 227.698 56.2527C226.822 56.559 225.963 56.8443 225.122 57.1085C224.278 57.3338 223.35 57.4876 222.338 57.5698C221.676 57.6236 220.971 57.6221 220.221 57.5654L219.574 57.5592L219.347 56.931C219.341 56.8531 219.276 56.78 219.153 56.7116C219.065 56.6011 218.98 56.5101 218.895 56.4386C218.682 56.2208 218.423 55.9283 218.119 55.5611C217.814 55.1938 217.717 54.7119 217.825 54.1152C217.518 53.7091 217.325 53.274 217.249 52.81C217.118 53.1341 217.007 53.4566 216.916 53.7776C216.86 54.0565 216.804 54.3353 216.748 54.6142L216.576 55.3924L215.827 55.5708C215.755 55.655 215.687 55.7782 215.622 55.9402C215.595 56.0991 215.605 56.2159 215.65 56.2906L215.936 56.9141L215.395 57.4871C215.326 57.6102 215.237 57.7155 215.126 57.8028C215.016 57.8902 214.925 57.976 214.853 58.0602C214.81 58.4948 214.727 58.9131 214.602 59.3151C214.517 59.7139 214.413 60.1143 214.288 60.5163C214.144 61.1551 213.999 61.7743 213.851 62.3742C213.743 62.9708 213.713 63.5612 213.76 64.1452L213.588 64.9234C213.419 65.2507 213.185 65.5048 212.886 65.6859C212.626 65.8637 212.365 66.0221 212.102 66.1611C211.725 66.3484 211.465 66.5263 211.322 66.6947L211.208 67.4681L210.342 67.6561C209.845 67.814 209.482 67.9219 209.251 67.9798C209.06 68.0346 208.828 68.073 208.555 68.0952L207.791 68.0984C207.286 67.6691 206.868 67.3504 206.538 67.1421C206.243 66.8917 205.893 66.6849 205.488 66.5219L205.1 66.0831C204.919 65.7843 204.799 65.5197 204.741 65.2892C204.68 65.0198 204.6 64.752 204.5 64.4858C204.381 63.986 204.235 63.6451 204.064 63.4631L203.117 62.6582ZM220.513 45.9607C220.032 46.7836 219.572 47.6439 219.136 48.5416C219.405 48.4805 219.657 48.4405 219.89 48.4215C220.163 48.3994 220.434 48.3578 220.703 48.2967C222.059 48.1082 223.317 47.9081 224.475 47.6964C225.634 47.4847 226.884 47.1873 228.224 46.8041C227.796 45.3888 227.327 43.9572 226.817 42.5094C226.343 41.0194 225.831 39.5326 225.279 38.0489L225.035 38.6566C224.147 39.7869 223.304 40.9919 222.506 42.2716C221.709 43.5513 221.063 44.7599 220.567 45.8975L220.513 45.9607ZM245.952 50.8314C245.917 50.4031 245.944 50.009 246.032 49.6491C246.121 49.2892 246.104 48.8399 245.982 48.3011C246.98 45.6334 248.15 43.1478 249.491 40.8441C250.868 38.4984 252.56 36.4015 254.565 34.5534C254.893 34.2524 255.144 33.9577 255.316 33.6693C255.524 33.3389 255.715 33.0295 255.887 32.7411C256.099 32.4496 256.333 32.1955 256.59 31.9787C256.843 31.7229 257.181 31.5387 257.603 31.4261C258.485 30.2179 259.569 29.0913 260.856 28.0462C262.142 27.0011 263.491 25.9902 264.901 25.0134C266.311 24.0367 267.719 23.0405 269.126 22.0249C270.572 21.0061 271.855 19.922 272.977 18.7728C273.427 19.0105 273.766 19.081 273.993 18.9841C274.256 18.8452 274.527 18.8036 274.806 18.8593C275.217 19.5706 275.707 20.0599 276.278 20.3271C276.884 20.5522 277.491 20.7968 278.101 21.0608C278.746 21.2827 279.339 21.5873 279.88 21.9745C280.456 22.3195 280.91 22.8314 281.239 23.5101C280.966 23.5322 280.838 23.6406 280.854 23.8353C280.909 24.0268 280.984 24.2362 281.081 24.4635C281.178 24.6908 281.234 24.9018 281.25 25.0964C281.266 25.2911 281.099 25.4027 280.748 25.4311C280.77 25.7037 280.918 25.8289 281.19 25.8067C281.463 25.7846 281.61 25.9098 281.632 26.1823C281.651 26.4159 281.609 26.6154 281.505 26.7806C281.436 26.9037 281.454 27.1178 281.557 27.423C280.673 28.1218 279.671 28.8107 278.55 29.4896C277.465 30.1264 276.306 30.8084 275.072 31.5357C273.876 32.2599 272.647 33.0456 271.383 33.8928C270.155 34.698 268.937 35.62 267.728 36.6587C266.519 37.6975 265.298 38.8352 264.066 40.0718C262.873 41.3053 261.725 42.6134 260.623 43.9963C259.517 45.3402 258.494 46.7362 257.553 48.1843C256.61 49.5935 255.82 50.9705 255.185 52.3154C255.278 52.5037 255.39 52.671 255.519 52.8173C255.688 52.9604 255.819 53.1261 255.912 53.3145C257.398 53.2722 258.78 53.1599 260.059 52.9777C261.334 52.7565 262.625 52.73 263.932 52.8982C264.079 52.7688 264.163 52.6051 264.186 52.4073C264.21 52.2095 264.315 52.0637 264.504 51.97C267.129 51.4824 269.567 50.8534 271.816 50.0828C274.063 49.2733 276.348 48.4606 278.673 47.6447C277.95 47.4291 277.309 47.2656 276.752 47.1541C276.499 46.9395 276.483 46.7448 276.704 46.5701C276.961 46.3533 277.159 46.1412 277.299 45.9339C276.648 45.6341 276.084 45.2096 275.608 44.6603C275.172 44.1079 274.876 43.3677 274.723 42.4396C274.976 42.1838 275.09 41.9002 275.065 41.5888C275.04 41.2773 274.883 41.0353 274.595 40.8628C274.394 40.8007 274.277 40.8102 274.244 40.8912C274.212 40.9722 274.179 41.0533 274.146 41.1343C274.153 41.2122 274.12 41.2932 274.049 41.3774C274.016 41.4584 273.919 41.4663 273.757 41.4011C273.761 40.9697 273.83 40.6114 273.963 40.3262C274.097 40.041 274.187 39.7006 274.233 39.3049L278.819 35.6991C279.357 36.0473 280.013 36.4056 280.788 36.7737C281.562 37.1419 282.376 37.507 283.228 37.8688C284.081 38.2307 284.954 38.6105 285.849 39.0081C286.74 39.3668 287.573 39.7303 288.347 40.0985C289.073 40.353 289.709 40.6933 290.253 41.1194C290.794 41.5066 291.318 41.9343 291.827 42.4025C292.332 42.8318 292.837 43.261 293.342 43.6903C293.847 44.1196 294.443 44.463 295.131 44.7208C295.103 45.35 295.183 45.853 295.371 46.2297C295.558 46.6064 295.635 47.0705 295.601 47.6219C294.969 49.0057 294.165 50.2075 293.19 51.2273C292.211 52.2082 291.087 53.0833 289.817 53.8527C288.586 54.619 287.25 55.2958 285.808 55.8832C284.364 56.4316 282.88 56.9832 281.357 57.538C279.832 58.0538 278.29 58.6102 276.731 59.207C275.209 59.7618 273.712 60.3928 272.241 61.1002C271.579 61.1539 271.016 61.2193 270.552 61.2961C270.088 61.373 269.645 61.4678 269.223 61.5805C268.801 61.6931 268.379 61.8058 267.957 61.9184C267.535 62.0311 267.073 62.1274 266.57 62.2075C266.372 62.1843 266.239 62.2343 266.17 62.3575C266.141 62.4774 266.071 62.5811 265.96 62.6684C265.191 62.8485 264.495 62.9638 263.872 63.0144C263.249 63.065 262.724 63.1077 262.295 63.1425C261.75 63.1868 261.192 63.3105 260.621 63.5136C260.049 63.7168 259.509 63.8195 259 63.8217C255.483 63.9505 252.637 62.9276 250.461 60.7528C248.286 58.578 246.935 55.4545 246.408 51.3822C246.431 51.1843 246.383 51.0707 246.263 51.0413C246.14 50.9729 246.036 50.9029 245.952 50.8314Z" fill="#006EB5"/>
</g>
<defs>
<clipPath id="clip0_4_9">
<rect width="305" height="91" fill="white"/>
</clipPath>
<clipPath id="clip1_4_9">
<rect width="149" height="65" fill="white" transform="translate(6 16)"/>
</clipPath>
</defs>
</svg>
